<svg width="266" height="66" viewBox="0 0 266 66" fill="none" xmlns="http://www.w3.org/2000/svg">
<path d="M95.6573 46.8209C93.6841 46.8209 91.914 46.4713 90.3471 45.7721C88.7801 45.0439 87.5323 44.068 86.6038 42.8445C85.7042 41.621 85.2109 40.2664 85.1238 38.7807H91.2611C91.3772 39.7129 91.827 40.4849 92.6104 41.0966C93.4229 41.7084 94.4241 42.0142 95.6138 42.0142C96.7745 42.0142 97.6741 41.7812 98.3125 41.3151C98.9799 40.849 99.3136 40.2518 99.3136 39.5235C99.3136 38.737 98.9073 38.1544 98.0948 37.7757C97.3113 37.3678 96.0491 36.9309 94.308 36.4648C92.5089 36.0278 91.029 35.5763 89.8683 35.1102C88.7366 34.6441 87.75 33.9304 86.9084 32.969C86.0959 32.0077 85.6897 30.7114 85.6897 29.0801C85.6897 27.74 86.0669 26.5165 86.8214 25.4095C87.6049 24.3026 88.7075 23.4286 90.1294 22.7878C91.5803 22.1469 93.2779 21.8264 95.2221 21.8264C98.0948 21.8264 100.387 22.5547 102.099 24.0113C103.811 25.4387 104.754 27.3759 104.929 29.8229H99.0959C99.0089 28.8616 98.6026 28.1042 97.8772 27.5507C97.1808 26.9681 96.2377 26.6767 95.048 26.6767C93.9453 26.6767 93.0892 26.8807 92.4799 27.2885C91.8995 27.6963 91.6093 28.2644 91.6093 28.9927C91.6093 29.8083 92.0156 30.4346 92.8281 30.8716C93.6406 31.2794 94.9029 31.7018 96.6149 32.1388C98.356 32.5758 99.7924 33.0273 100.924 33.4934C102.056 33.9595 103.028 34.6878 103.84 35.6782C104.682 36.6396 105.117 37.9213 105.146 39.5235C105.146 40.9218 104.754 42.1745 103.971 43.2814C103.216 44.3884 102.114 45.2623 100.663 45.9032C99.241 46.515 97.5725 46.8209 95.6573 46.8209Z" fill="black"/>
<path d="M117.243 27.2448V38.9555C117.243 39.7711 117.432 40.3683 117.809 40.747C118.215 41.0966 118.883 41.2714 119.811 41.2714H122.641V46.4276H118.81C113.674 46.4276 111.106 43.9223 111.106 38.9118V27.2448H108.233V22.2197H111.106V16.2333H117.243V22.2197H122.641V27.2448H117.243Z" fill="black"/>
<path d="M137.731 46.8209C135.41 46.8209 133.32 46.3111 131.463 45.2915C129.606 44.2428 128.141 42.7716 127.067 40.8781C126.022 38.9846 125.5 36.7998 125.5 34.3236C125.5 31.8475 126.037 29.6627 127.111 27.7692C128.213 25.8756 129.708 24.4191 131.594 23.3995C133.48 22.3508 135.584 21.8264 137.905 21.8264C140.227 21.8264 142.33 22.3508 144.217 23.3995C146.103 24.4191 147.583 25.8756 148.656 27.7692C149.759 29.6627 150.31 31.8475 150.31 34.3236C150.31 36.7998 149.744 38.9846 148.613 40.8781C147.51 42.7716 146.001 44.2428 144.086 45.2915C142.2 46.3111 140.081 46.8209 137.731 46.8209ZM137.731 41.4899C138.834 41.4899 139.864 41.2277 140.821 40.7033C141.808 40.1498 142.592 39.3342 143.172 38.2563C143.752 37.1785 144.042 35.8676 144.042 34.3236C144.042 32.0223 143.433 30.2599 142.214 29.0364C141.025 27.7837 139.559 27.1574 137.818 27.1574C136.077 27.1574 134.612 27.7837 133.422 29.0364C132.261 30.2599 131.681 32.0223 131.681 34.3236C131.681 36.625 132.247 38.402 133.378 39.6546C134.539 40.8781 135.99 41.4899 137.731 41.4899Z" fill="black"/>
<path d="M153.213 34.3236C153.213 31.8184 153.721 29.6335 154.737 27.7692C155.752 25.8756 157.16 24.4191 158.959 23.3995C160.758 22.3508 162.818 21.8264 165.14 21.8264C168.128 21.8264 170.595 22.5838 172.539 24.0986C174.512 25.5843 175.833 27.6818 176.5 30.391H169.928C169.579 29.3422 168.985 28.5266 168.143 27.9439C167.33 27.3322 166.315 27.0263 165.096 27.0263C163.355 27.0263 161.977 27.6672 160.961 28.949C159.945 30.2016 159.438 31.9932 159.438 34.3236C159.438 36.625 159.945 38.4165 160.961 39.6983C161.977 40.951 163.355 41.5773 165.096 41.5773C167.563 41.5773 169.173 40.4703 169.928 38.2563H176.5C175.833 40.8781 174.512 42.961 172.539 44.5049C170.566 46.0489 168.099 46.8209 165.14 46.8209C162.818 46.8209 160.758 46.3111 158.959 45.2915C157.16 44.2428 155.752 42.7862 154.737 40.9218C153.721 39.0283 153.213 36.8289 153.213 34.3236Z" fill="black"/>
<path d="M195.241 46.4276L187.058 36.1152V46.4276H180.964V14.0921H187.058V32.4884L195.154 22.2197H203.076L192.455 34.3673L203.163 46.4276H195.241Z" fill="black"/>
<path d="M204.816 34.2362C204.816 31.7892 205.295 29.619 206.253 27.7255C207.239 25.8319 208.56 24.3754 210.214 23.3558C211.897 22.3362 213.768 21.8264 215.829 21.8264C217.628 21.8264 219.195 22.1906 220.529 22.9188C221.893 23.6471 222.981 24.5647 223.794 25.6717V22.2197H229.931V46.4276H223.794V42.8882C223.011 44.0243 221.922 44.971 220.529 45.7284C219.166 46.4567 217.584 46.8209 215.785 46.8209C213.754 46.8209 211.897 46.2965 210.214 45.2478C208.56 44.1991 207.239 42.7279 206.253 40.8344C205.295 38.9118 204.816 36.7124 204.816 34.2362ZM223.794 34.3236C223.794 32.838 223.504 31.5708 222.923 30.522C222.343 29.4442 221.56 28.6285 220.573 28.075C219.586 27.4924 218.527 27.2011 217.396 27.2011C216.264 27.2011 215.219 27.4778 214.262 28.0313C213.304 28.5848 212.521 29.4005 211.911 30.4783C211.331 31.5271 211.041 32.7797 211.041 34.2362C211.041 35.6928 211.331 36.9746 211.911 38.0815C212.521 39.1594 213.304 39.9896 214.262 40.5723C215.248 41.1549 216.293 41.4462 217.396 41.4462C218.527 41.4462 219.586 41.1694 220.573 40.6159C221.56 40.0333 222.343 39.2177 222.923 38.1689C223.504 37.0911 223.794 35.8093 223.794 34.3236Z" fill="black"/>
<path d="M245.111 46.8209C243.137 46.8209 241.367 46.4713 239.8 45.7721C238.233 45.0439 236.986 44.068 236.057 42.8445C235.157 41.621 234.664 40.2664 234.577 38.7807H240.714C240.83 39.7129 241.28 40.4849 242.064 41.0966C242.876 41.7084 243.877 42.0142 245.067 42.0142C246.228 42.0142 247.127 41.7812 247.766 41.3151C248.433 40.849 248.767 40.2518 248.767 39.5235C248.767 38.737 248.361 38.1544 247.548 37.7757C246.765 37.3678 245.502 36.9309 243.761 36.4648C241.962 36.0278 240.482 35.5763 239.321 35.1102C238.19 34.6441 237.203 33.9304 236.362 32.969C235.549 32.0077 235.143 30.7114 235.143 29.0801C235.143 27.74 235.52 26.5165 236.275 25.4095C237.058 24.3026 238.161 23.4286 239.583 22.7878C241.034 22.1469 242.731 21.8264 244.675 21.8264C247.548 21.8264 249.84 22.5547 251.553 24.0113C253.265 25.4387 254.208 27.3759 254.382 29.8229H248.549C248.462 28.8616 248.056 28.1042 247.33 27.5507C246.634 26.9681 245.691 26.6767 244.501 26.6767C243.398 26.6767 242.542 26.8807 241.933 27.2885C241.353 27.6963 241.063 28.2644 241.063 28.9927C241.063 29.8083 241.469 30.4346 242.281 30.8716C243.094 31.2794 244.356 31.7018 246.068 32.1388C247.809 32.5758 249.246 33.0273 250.377 33.4934C251.509 33.9595 252.481 34.6878 253.294 35.6782C254.135 36.6396 254.57 37.9213 254.599 39.5235C254.599 40.9218 254.208 42.1745 253.424 43.2814C252.67 44.3884 251.567 45.2623 250.116 45.9032C248.694 46.515 247.026 46.8209 245.111 46.8209Z" fill="black"/>
<path d="M262.3 46.7335C261.198 46.7335 260.283 46.3985 259.558 45.7284C258.862 45.0293 258.513 44.1699 258.513 43.1503C258.513 42.1308 258.862 41.286 259.558 40.6159C260.283 39.9168 261.198 39.5672 262.3 39.5672C263.374 39.5672 264.259 39.9168 264.955 40.6159C265.652 41.286 266 42.1308 266 43.1503C266 44.1699 265.652 45.0293 264.955 45.7284C264.259 46.3985 263.374 46.7335 262.3 46.7335Z" fill="black"/>
<path fill-rule="evenodd" clip-rule="evenodd" d="M35.565 31.8325V65.9772L35.5423 66L9.09075 54.6434L9.06808 54.6048V20.4623L9.09075 20.5032L35.5401 31.8598L35.565 31.8325Z" fill="#4664DF"/>
<path fill-rule="evenodd" clip-rule="evenodd" d="M62.0596 20.4509L62.037 20.4919L35.5877 31.8484V65.9909L62.037 54.6343L62.0596 54.5934V20.4509Z" fill="#2147DE"/>
<path fill-rule="evenodd" clip-rule="evenodd" d="M9.06808 20.4828L0 29.5862L26.5241 40.9655L35.5922 31.8621L9.06808 20.4828ZM44.6603 0L35.5922 9.10345L62.1163 20.4828L71.1844 11.3793L44.6603 0ZM62.1163 20.4828L71.1844 29.5862L44.6603 40.9655L35.5922 31.8621L62.1163 20.4828ZM26.5241 0L35.5922 9.10345L9.06808 20.4828L0 11.3793L26.5241 0Z" fill="#146DE2"/>
</svg>
